<?xml version="1.0" ?><svg id="Layer_1" style="enable-background:new 0 0 512 512;" version="1.1" viewBox="0 0 512 512" xml:space="preserve" xmlns="http://www.w3.org/2000/svg" xmlns:xlink="http://www.w3.org/1999/xlink"><style type="text/css">
	.st0{fill:#F3726E;}
	.st1{opacity:0.6;fill:#F45858;}
	.st2{fill:#FFFDFD;}
</style><g><rect class="st0" height="512" width="512" x="0"/><path class="st1" d="M512,293.6l-204-204h0l-8.6-8.6H137.1c-5.3,0-9.5,4.3-9.5,9.5v331c0,5,3.8,9,8.6,9.5c0.2,2,37,39.8,78,81H512   V293.6z"/><g id="XMLID_394_"><path class="st2" d="M299.4,81H137.1c-5.3,0-9.5,4.3-9.5,9.5v331c0,5.3,4.3,9.5,9.5,9.5h237.7    c5.3,0,9.5-4.3,9.5-9.5V166L299.4,81z M365.4,412H146.6V308.5h218.7V412z M365.4,289.5H146.6V100h152.8V166h65.9V289.5z" id="XMLID_405_"/><path class="st2" d="M208.4,343.4h-10.6v17.3h10.6c3,0,5.3-0.8,6.8-2.4c1.5-1.6,2.3-3.7,2.3-6.2s-0.8-4.6-2.3-6.2    C213.8,344.2,211.5,343.4,208.4,343.4z" id="XMLID_404_"/><path class="st2" d="M305,343.4h-10.6v17.3H305c3,0,5.3-0.8,6.8-2.4c1.5-1.6,2.3-3.7,2.3-6.2s-0.8-4.6-2.3-6.2    C310.3,344.2,308.1,343.4,305,343.4z" id="XMLID_403_"/><path class="st2" d="M354.9,319H157.1v82.5h197.7V319z M221.2,363.1c-3.1,2.8-7.3,4.2-12.7,4.2h-10.6v18.6h-8.2    v-49h18.8c5.4,0,9.6,1.4,12.7,4.2c3.1,2.8,4.6,6.5,4.6,11C225.7,356.6,224.2,360.3,221.2,363.1z M273.9,385.8h-8.2v-20.9h-21.9    v20.9h-8.2v-49h8.2v21.5h21.9v-21.5h8.2V385.8z M317.7,363.1c-3.1,2.8-7.3,4.2-12.7,4.2h-10.6v18.6h-8.2v-49H305    c5.4,0,9.6,1.4,12.7,4.2c3.1,2.8,4.6,6.5,4.6,11C322.3,356.6,320.8,360.3,317.7,363.1z" id="XMLID_398_"/><rect class="st2" height="15.4" id="XMLID_397_" width="179.2" x="166.4" y="186.1"/><rect class="st2" height="15.4" id="XMLID_396_" width="179.2" x="166.4" y="219.5"/><rect class="st2" height="15.4" id="XMLID_395_" width="142.2" x="166.4" y="252.9"/></g></g></svg>